# xmcd
#
# Track frame offsets: 
#        150
#        5632
#        8612
#        11812
#        14842
#        18012
#        24700
#        30605
#        36797
#        41477
#        47117
#        49790
#        53892
#        57362
#        63512
#        66862
#        70135
#        73855
#        78687
#        83670
#        87087
#        91147
#        96272
#        100812
#        104907
#        111797
#        117762
#        124085
#        130475
#        137460
#        143025
#        149702
#        155885
#        162477
#        165082
#        171795
#        179755
#        185102
#        190950
#        195705
#        201070
#        208530
#        213985
#        221732
#        228267
#        232850
#        237642
#        243450
#
# Disc length: 3334 seconds
#
# Revision: 2
# Processed by: cddbd v1.5.2PL0 Copyright (c) Steve Scherf et al.
# Submitted via: ExactAudioCopyFreeDBPlugin 1.0
#
DISCID=be0d0430
DTITLE=Various Artist - Country and Western - 48 Super Hits - Non Stop
DYEAR=1987
DGENRE=Country
TTITLE0=Hello I Love You
TTITLE1=Sundown
TTITLE2=Woman, Beautiful Woman
TTITLE3=Ruby, Don't Take Your Love Out Of Town
TTITLE4=Gentle On My Mind
TTITLE5=Jolene
TTITLE6=Let Your Love Flow
TTITLE7=Rhinestone Cowboy
TTITLE8=Oh Lonesome Me
TTITLE9=Half The Way
TTITLE10=Honey Come Back
TTITLE11=The Most Beautiful Girl
TTITLE12=Wolverton Mountain
TTITLE13=Coward Of The Country
TTITLE14=Some Broken Hearts Never Mend
TTITLE15=Take Me Home Country Roads
TTITLE16=All I Ever Need Is You
TTITLE17=Heaven Is My Womans Love
TTITLE18=You Ask Me To
TTITLE19=Before The Next Teardrop Falls
TTITLE20=Banks Of Ohio
TTITLE21=If You Love Me Let Me Know
TTITLE22=You're My Best Friend
TTITLE23=I Recall A Gypsy Woman
TTITLE24=Stolen Love
TTITLE25=Distant Drums
TTITLE26=She Called Me Baby
TTITLE27=I Fall To Pieces
TTITLE28=I Can't Help It If I'm Still In Love With You
TTITLE29=Heartache By The Number
TTITLE30=You're My Bestest Friend
TTITLE31=Walk Right Back
TTITLE32=Blue Train
TTITLE33=The Shelter Of Your Eyes
TTITLE34=Silver Treads And Golden Needles
TTITLE35=Let Me Be There
TTITLE36=Have I Told You Lately That I Love You
TTITLE37=I Walk The Line
TTITLE38=If I Said You Had A Beautiful Body
TTITLE39=Detroit City
TTITLE40=Back Home Again
TTITLE41=On The Road Again
TTITLE42=Hard To Be Humble
TTITLE43=One Day At A Time
TTITLE44=Amanda
TTITLE45=I'm So Lonely I Could Cry
TTITLE46=Adios Amigo
TTITLE47=He'll Have To Go
EXTD=
EXTT0=
EXTT1=
EXTT2=
EXTT3=
EXTT4=
EXTT5=
EXTT6=
EXTT7=
EXTT8=
EXTT9=
EXTT10=
EXTT11=
EXTT12=
EXTT13=
EXTT14=
EXTT15=
EXTT16=
EXTT17=
EXTT18=
EXTT19=
EXTT20=
EXTT21=
EXTT22=
EXTT23=
EXTT24=
EXTT25=
EXTT26=
EXTT27=
EXTT28=
EXTT29=
EXTT30=
EXTT31=
EXTT32=
EXTT33=
EXTT34=
EXTT35=
EXTT36=
EXTT37=
EXTT38=
EXTT39=
EXTT40=
EXTT41=
EXTT42=
EXTT43=
EXTT44=
EXTT45=
EXTT46=
EXTT47=
PLAYORDER=
